# xmcd CD database file
#
# Track frame offsets:
#	150
#	22147
#	50932
#	75680
#	96335
#	117677
#	147950
#	166962
#	189877
#	215800
#
# Disc length: 3166 seconds
#
# Revision: 0
# Processed by: cddbd v1.4PL0 Copyright (c) Steve Scherf et al.
# Submitted via: CDex 1.50beta10
#
DISCID=980c5c0a
DTITLE=Pete McCann - You remind me of someone
DYEAR=2000
DGENRE=Jazz
TTITLE0=Knew Blues
TTITLE1=You remind me someone
TTITLE2=Pollock
TTITLE3=Falling Grace
TTITLE4=Mr. Fritters
TTITLE5=Inquisition
TTITLE6=I love you
TTITLE7=Letting go
TTITLE8=Ornery
TTITLE9=The patriot
EXTD=YEAR: 2000
EXTT0=
EXTT1=
EXTT2=
EXTT3=
EXTT4=
EXTT5=
EXTT6=
EXTT7=
EXTT8=
EXTT9=
PLAYORDER=
